{"title":"Three.To.Tango.1999.iNTERNAL.DVDRip.XviD-EXViDiNT","uid":6734419,"size":743978209,"categoryP":"video","categoryS":"movies","magnet":"?xt=urn:btih:65a52249cee7a5ac9442fc06b3118ba6abe7713d&amp;dn=Three.To.Tango.1999.iNTERNAL.DVDRip.XviD-EXViDiNT&amp;tr=udp%3A%2F%2Ftracker.openbittorrent.com%3A80&amp;tr=udp%3A%2F%2Fopen.demonii.com%3A1337&amp;tr=udp%3A%2F%2Ftracker.coppersurfer.tk%3A6969&amp;tr=udp%3A%2F%2Fexodus.desync.com%3A6969","seeders":1,"leechers":0,"uploader":"TvTeam","files":6,"time":1318271752,"description":". \n  &lt;a href=&quot;\nhttp://www.torrenting.com/&quot; rel=&quot;nofollow&quot; target=&quot;_NEW&quot;&gt;\nhttp://www.torrenting.com/&lt;/a&gt;        :     Greatest Movie Tracker on The Net!!!\n &lt;a href=&quot;\nhttp://www.Torrenting.com&quot; rel=&quot;nofollow&quot; target=&quot;_NEW&quot;&gt;\nhttp://www.Torrenting.com&lt;/a&gt;          :     Once &amp; For all ;)\n\n\n               www . Torrenting . Com \n\n(((((((((((((= Enjoy No RAR releases =))))))))))))))))))))\n\n\n...................................NFO:....................................\n\n.                                                                                                     \n       \n     \n     \n       \n       \n     \n     \n                                         \n                                         \n                EXVID                    \n                                         \n         \n                                         \n         Filled the Archives             \n                                         \n         \n                                         \n                With:                    \n                                         \n         \n                                         \n                                    \n     E240                           \n                                    \n     SP               (C) 2009      \n                                         \n     \n     \n     \n                                                                                  \n                                                                                   \n                Three.To.Tango.1999.iNTERNAL.DVDRip.XviD-EXViDiNT                   \n                                                                                   \n                                                                                  \n     \n                                                                                               \nEXViD aims to iNTERNAL those releases which have been lost in the archives.\nEXViD aims to PRE non-internal releases which have poor sources and are likely skipped by others. &lt;a href=&quot;\nhttp://www.imdb.com/title/tt0144640/&quot; rel=&quot;nofollow&quot; target=&quot;_NEW&quot;&gt;\nhttp://www.imdb.com/title/tt0144640/&lt;/a&gt;\nSubtitles: EN, FR, IT, NL, AR, ES, PT, DE\nDate: 2011.10\n\nDirector: Damon Santostefano\n\nGenres: Comedy | Romance \n\nPlot:\nA rich businessman, Dylan McDermott, mistakenly believes that Matthew Perry, who is bidding on \na $90 million restoration contract, is gay and asks him to keep tabs on his mistress, Neve \nCampbell. Perry, who is not gay, falls for Neve in a big way but she thinks he's gay.\n\nCast:\nMatthew Perry \t... \tOscar Novak\nNeve Campbell \t... \tAmy Post\nDylan McDermott ... \tCharles Newman\nOliver Platt \t... \tPeter Steinberg\nCylk Cozart \t... \tKevin Cartwright\nJohn C. McGinley... \tStrauss\nBob Balaban \t... \tDecker\nDeborah Rush \t... \tLenore\nKelly Rowan \t... \tOlivia Newman\nRick Gomez \t... \tRick\nPatrick Van Horn... \tZack\nDavid Ramsey \t... \tBill\nKent Staines \t... \tGallery Owner\nHo Chow \t... \tCabbie\n\nStats:\nGeneral\nFormat                           : AVI\nFormat/Info                      : Audio Video Interleave\nFile size                        : 702 MiB\nDuration                         : 1h 34mn\nOverall bit rate                 : 1 039 Kbps\nWriting application              : MEncoder 1.0rc4-4.5.2\nWriting library                  : MPlayer\n\nVideo\nID                               : 0\nFormat                           : MPEG-4 Visual\nFormat profile                   : Advanced Simple@L5\nFormat settings, BVOP            : Yes\nFormat settings, QPel            : No\nFormat settings, GMC             : No warppoints\nFormat settings, Matrix          : Default (H.263)\nCodec ID                         : XVID\nCodec ID/Hint                    : XviD\nDuration                         : 1h 34mn\nBit rate                         : 908 Kbps\nWidth                            : 640 pixels\nHeight                           : 360 pixels\nDisplay aspect ratio             : 16:9\nFrame rate                       : 25.000 fps\nColor space                      : YUV\nChroma subsampling               : 4:2:0\nBit depth                        : 8 bits\nScan type                        : Progressive\nCompression mode                 : Lossy\nBits/(Pixel*Frame)               : 0.158\nStream size                      : 613 MiB (87%)\nWriting library                  : XviD 1.2.1 (UTC 2008-12-04)\n\nAudio\nID                               : 1\nFormat                           : MPEG Audio\nFormat version                   : Version 1\nFormat profile                   : Layer 3\nMode                             : Joint stereo\nMode extension                   : MS Stereo\nCodec ID                         : 55\nCodec ID/Hint                    : MP3\nDuration                         : 1h 34mn\nBit rate mode                    : Variable\nBit rate                         : 119 Kbps\nChannel(s)                       : 2 channels\nSampling rate                    : 48.0 KHz\nCompression mode                 : Lossy\nStream size                      : 80.3 MiB (11%)\nAlignment                        : Aligned on interleaves\nInterleave, duration             : 24 ms (0.60 video frame)\nInterleave, preload duration     : 177 ms\n\n\nRelease notes:\n\nenjoy!\n\nLooking for:\n75TB+ Archives\nDUTCH/FLEMiSH Archives\n                                                                                                    \nGreets: CRBS EPiSODE FiCO FLS iLS KLASSiGER LiPSYNC MADE NODLABS RUNNER SPRiNTER      \n   \n\n                                                                    ASCII DONE BY XX^NFO 2oo9","torrent":{"xt":"urn:btih:65a52249cee7a5ac9442fc06b3118ba6abe7713d","amp;dn":"Three.To.Tango.1999.iNTERNAL.DVDRip.XviD-EXViDiNT","amp;tr":["udp%3A%2F%2Ftracker.openbittorrent.com%3A80","udp%3A%2F%2Fopen.demonii.com%3A1337","udp%3A%2F%2Ftracker.coppersurfer.tk%3A6969","udp%3A%2F%2Fexodus.desync.com%3A6969"],"infoHash":"65a52249cee7a5ac9442fc06b3118ba6abe7713d","infoHashBuffer":{"type":"Buffer","data":[101,165,34,73,206,231,165,172,148,66,252,6,179,17,139,166,171,231,113,61]},"announce":[],"urlList":[]}}